<svg xmlns="http://www.w3.org/2000/svg" viewBox="0 0 7317.32 916.36">
  <polygon points="264.36 915.78 578.3 372.03 528.73 286.17 165.23 915.78 0 915.78 528.73 0 660.91 228.94 743.59 372.15 743.59 372.16 837.84 535.39 713.92 606.93 660.98 515.25 512.34 772.68 809.62 772.68 756.85 681.29 880.76 609.74 880.77 609.74 974.84 772.68 1057.46 915.78 264.36 915.78"/>
  <path d="M1368.38,916.36c-55.75,0-102.22-4.63-139.39-13.94-37.18-9.29-66.91-24.15-89.21-44.6-22.3-20.44-38.1-47.2-47.39-80.29-9.3-33.07-13.94-73.77-13.94-122.1V155.87h168.38v492.87c0,22.3,2.04,41.08,6.13,56.31,4.08,15.24,11.33,27.88,21.74,37.91,10.4,10.04,24.34,17.28,41.82,21.74,17.46,4.46,39.59,6.69,66.35,6.69h451.61v144.96h-466.11Z"/>
  <path d="M2028.52,916.36V301.95h-318.91V155.87h808.44v146.08h-318.91V916.36h-170.61Z"/>
  <path d="M2890.47,916.36c-55.75,0-102.22-4.63-139.39-13.94-37.18-9.29-66.9-24.15-89.21-44.6-22.3-20.44-38.1-47.2-47.39-80.29-9.3-33.07-13.94-73.77-13.94-122.1v-238.63c0-47.57,4.63-88.09,13.94-121.54,9.29-33.45,25.09-60.39,47.39-80.84,22.3-20.44,52.03-35.3,89.21-44.6,37.16-9.29,83.63-13.94,139.39-13.94h187.33v143.85h-187.33c-24.53,0-44.6,2.06-60.21,6.13-15.61,4.09-28.07,10.59-37.35,19.51-9.3,8.92-15.61,20.82-18.96,35.68-3.35,14.88-5.02,33.45-5.02,55.75v51.29h647.86v134.92h-647.86v53.52c0,23.05,1.67,42.01,5.02,56.87,3.34,14.88,9.48,26.76,18.4,35.68,8.92,8.92,21.36,15.05,37.36,18.4,15.98,3.35,36.24,5.02,60.77,5.02h530.78v143.85h-530.78Z"/>
  <path d="M4142.71,916.36l-444.92-276.54v276.54h-168.38V155.87h595.45c53.52,0,99.24,3.34,137.16,10.04,37.91,6.69,68.94,18.59,93.11,35.68,24.15,17.11,41.82,40.53,52.97,70.25,11.15,29.74,16.73,67.29,16.73,112.62v52.41c0,43.87-5.96,80.11-17.84,108.72-11.9,28.63-30.3,51.29-55.2,68.02-24.92,16.73-56.31,28.43-94.22,35.13-37.91,6.69-82.9,10.04-134.93,10.04h-133.81l446.03,257.58h-292.15Zm112.62-522.97c0-20.07-2.23-36.41-6.69-49.06-4.46-12.63-11.9-22.3-22.3-28.99-10.42-6.69-24.91-11.15-43.49-13.38-18.59-2.23-41.64-3.35-69.14-3.35h-415.93v231.94h415.93c27.49,0,50.35-1.12,68.58-3.35,18.21-2.23,32.7-6.69,43.49-13.38,10.77-6.69,18.4-16.34,22.86-28.99,4.46-12.63,6.69-29.36,6.69-50.18v-41.26Z"/>
  <path d="M4813.98,916.36c-55.75,0-102.22-4.63-139.39-13.94-37.18-9.29-66.9-24.15-89.21-44.6-22.3-20.44-38.1-47.2-47.39-80.29-9.3-33.07-13.94-73.77-13.94-122.1v-238.63c0-47.57,4.63-88.09,13.94-121.54,9.29-33.45,25.09-60.39,47.39-80.84,22.3-20.44,52.03-35.3,89.21-44.6,37.16-9.29,83.63-13.94,139.39-13.94h527.44v146.08h-519.63c-26.03,0-47.39,2.06-64.12,6.13-16.73,4.09-29.93,10.98-39.59,20.63-9.67,9.67-16.36,22.49-20.07,38.47-3.73,15.99-5.58,35.51-5.58,58.54v223.02c0,23.8,1.85,43.49,5.58,59.1,3.71,15.61,10.4,28.26,20.07,37.91,9.65,9.67,23.03,16.36,40.14,20.07,17.09,3.73,38.64,5.58,64.67,5.58h518.51v144.96h-527.44Z"/>
  <path d="M5735.03,916.36c-55.75,0-102.22-4.63-139.39-13.94-37.18-9.29-66.9-24.15-89.21-44.6-22.3-20.44-38.1-47.2-47.39-80.29-9.3-33.07-13.94-73.77-13.94-122.1v-238.63c0-47.57,4.63-88.09,13.94-121.54,9.29-33.45,25.09-60.39,47.39-80.84,22.3-20.44,52.03-35.3,89.21-44.6,37.16-9.29,83.63-13.94,139.39-13.94h288.81c56.49,0,103.32,4.65,140.5,13.94,37.16,9.3,66.9,24.17,89.21,44.6,22.3,20.45,38.09,47.39,47.39,80.84,9.29,33.45,13.94,73.98,13.94,121.54v238.63c0,48.33-4.65,89.03-13.94,122.1-9.3,33.09-25.09,59.85-47.39,80.29-22.3,20.45-52.04,35.32-89.21,44.6-37.18,9.3-84.01,13.94-140.5,13.94h-288.81Zm410.35-491.75c0-23.78-2.06-43.49-6.13-59.1-4.09-15.61-10.98-28.24-20.63-37.91-9.67-9.65-22.86-16.34-39.59-20.07-16.73-3.71-37.36-5.58-61.89-5.58h-274.31c-26.76,0-48.51,1.86-65.23,5.58-16.73,3.73-29.93,10.42-39.59,20.07-9.67,9.67-16.17,22.3-19.51,37.91-3.35,15.61-5.02,35.32-5.02,59.1v224.13c0,24.53,1.67,44.79,5.02,60.77,3.35,15.99,9.84,28.63,19.51,37.91,9.65,9.3,22.86,15.61,39.59,18.96,16.73,3.35,38.47,5.02,65.23,5.02h274.31c24.53,0,45.16-1.67,61.89-5.02,16.73-3.35,29.92-9.65,39.59-18.96,9.65-9.29,16.53-21.92,20.63-37.91,4.08-15.98,6.13-36.24,6.13-60.77v-224.13Z"/>
  <path d="M6725.21,916.36c-55.75,0-102.22-4.63-139.39-13.94-37.18-9.29-66.9-24.15-89.21-44.6-22.3-20.44-38.1-47.2-47.39-80.29-9.3-33.07-13.94-73.77-13.94-122.1v-238.63c0-47.57,4.63-88.09,13.94-121.54,9.29-33.45,25.09-60.39,47.39-80.84,22.3-20.44,52.03-35.3,89.21-44.6,37.16-9.29,83.63-13.94,139.39-13.94h198.49v146.08h-190.68c-25.28,0-46.28,2.06-63,6.13-16.73,4.09-29.93,10.98-39.59,20.63-9.67,9.67-16.55,22.3-20.63,37.91-4.09,15.61-6.13,34.95-6.13,57.98v224.13c0,25.28,2.04,45.91,6.13,61.89,4.08,15.99,11.15,28.43,21.19,37.35,10.04,8.92,23.42,15.05,40.14,18.4,16.73,3.35,37.36,5.02,61.89,5.02h286.58c23.78,0,43.85-1.67,60.21-5.02,16.34-3.35,29.55-9.65,39.59-18.96,10.04-9.29,17.28-22.48,21.74-39.59,4.46-17.09,6.69-39.03,6.69-65.79v-176.18h169.49v189.56c0,48.33-4.65,89.03-13.94,122.1-9.3,33.09-25.09,59.85-47.39,80.29-22.3,20.45-52.23,35.32-89.76,44.6-37.55,9.3-84.57,13.94-141.06,13.94h-299.96Z"/>
</svg>